<svg xmlns="http://www.w3.org/2000/svg" viewBox="0 0 800 500" fill="none">
  <rect width="800" height="500" fill="#161412"/>
  <rect x="170" y="88" width="460" height="324" rx="18" fill="#1f1c19" stroke="#3a3530"/>
  <rect x="188" y="106" width="424" height="36" rx="8" fill="#2a2622"/>
  <circle cx="210" cy="124" r="5" fill="#6b635a"/>
  <circle cx="226" cy="124" r="5" fill="#6b635a"/>
  <circle cx="242" cy="124" r="5" fill="#6b635a"/>
  <rect x="262" y="116" width="120" height="16" rx="6" fill="#3d3833"/>
  <rect x="210" y="168" width="200" height="10" rx="5" fill="#c9b8a2"/>
  <rect x="210" y="196" width="340" height="8" rx="4" fill="#4a433c"/>
  <rect x="210" y="218" width="300" height="8" rx="4" fill="#4a433c"/>
  <rect x="210" y="240" width="318" height="8" rx="4" fill="#4a433c"/>
  <rect x="210" y="278" width="160" height="8" rx="4" fill="#6b635a"/>
  <rect x="210" y="300" width="280" height="8" rx="4" fill="#3d3833"/>
  <rect x="210" y="322" width="240" height="8" rx="4" fill="#3d3833"/>
</svg>
